<svg preserveAspectRatio="none" overflow="visible" style="display: block;" width="16" height="16" viewBox="0 0 16 16" fill="none" xmlns="http://www.w3.org/2000/svg">
<g id="icon">
<path id="Vector" d="M14.6667 4.33333H10.6667" stroke="#230603" stroke-width="1.5" stroke-miterlimit="10" stroke-linecap="round" stroke-linejoin="round"/>
<path id="Vector_2" d="M4 4.33333H1.33333" stroke="#230603" stroke-width="1.5" stroke-miterlimit="10" stroke-linecap="round" stroke-linejoin="round"/>
<path id="Vector_3" d="M6.66667 6.66667C7.95533 6.66667 9 5.622 9 4.33333C9 3.04467 7.95533 2 6.66667 2C5.378 2 4.33333 3.04467 4.33333 4.33333C4.33333 5.622 5.378 6.66667 6.66667 6.66667Z" stroke="#230603" stroke-width="1.5" stroke-miterlimit="10" stroke-linecap="round" stroke-linejoin="round"/>
<path id="Vector_4" d="M14.6667 11.6667H12" stroke="#230603" stroke-width="1.5" stroke-miterlimit="10" stroke-linecap="round" stroke-linejoin="round"/>
<path id="Vector_5" d="M5.33333 11.6667H1.33333" stroke="#230603" stroke-width="1.5" stroke-miterlimit="10" stroke-linecap="round" stroke-linejoin="round"/>
<path id="Vector_6" d="M9.33333 14C10.622 14 11.6667 12.9553 11.6667 11.6667C11.6667 10.378 10.622 9.33333 9.33333 9.33333C8.04467 9.33333 7 10.378 7 11.6667C7 12.9553 8.04467 14 9.33333 14Z" stroke="#230603" stroke-width="1.5" stroke-miterlimit="10" stroke-linecap="round" stroke-linejoin="round"/>
</g>
</svg>
